<?xml version="1.0" encoding="utf-8"?>
<svg viewBox="0 0 500 500" xmlns="http://www.w3.org/2000/svg">
  <defs>
    <linearGradient gradientUnits="userSpaceOnUse" x1="251.975" y1="19.643" x2="251.975" y2="482.827" id="gradient-0" gradientTransform="matrix(0.689953, 0.723853, -0.797728, 0.760367, 271.371201, -126.733698)">
      <stop offset="0" style="stop-color: rgb(255, 230, 130);"/>
      <stop offset="1" style="stop-color: rgb(251, 205, 18);"/>
    </linearGradient>
    <linearGradient gradientUnits="userSpaceOnUse" x1="349.914" y1="243.889" x2="349.914" y2="441.314" id="gradient-1" gradientTransform="matrix(0.868541, -0.495618, 0.539682, 0.945758, -117.110638, 177.031931)">
      <stop offset="0" style="stop-color: rgba(23, 23, 24, 0.514);"/>
      <stop offset="1" style="stop-color: rgb(23, 23, 24);"/>
    </linearGradient>
  </defs>
  <path d="M 58.369 74.526 C 93.241 35.612 146.598 22.18 198.821 20.412 C 234.343 19.209 271.946 19.582 308.493 20.412 C 352.364 21.409 403.157 35.88 434.347 65.739 C 470.772 100.61 483.705 151.158 483.856 201.584 C 483.987 245.132 484.552 277.458 483.856 311.084 C 482.951 354.799 467.526 404.506 436.618 435.434 C 402.288 469.787 352.551 480.312 304.011 481.904 C 271.412 482.973 232.606 483.286 195.202 481.904 C 148.81 480.19 98.021 468.749 65.339 435.779 C 32.799 402.952 21.728 352.32 20.561 306.112 C 19.725 273 19.267 233.399 20.561 197.077 C 22.003 156.597 30.847 105.238 58.369 74.526 Z" style="fill: url('#gradient-0'); stroke: rgb(187, 118, 118); stroke-opacity: 0;"/>
  <path d="M 349.914 243.889 C 363.574 243.976 471.215 429.478 461.459 441.314 C 453.096 450.764 252.256 455.525 238.368 441.314 C 227.467 429.259 337.974 243.603 349.914 243.889 Z" style="stroke: rgb(0, 0, 0); stroke-opacity: 0; fill: url('#gradient-1'); transform-origin: 349.847923px 347.081779px;" transform="matrix(0, 1, -1, 0, -77.632278442383, -96.239723205566)"/>
</svg>